<svg width="24" height="24" viewBox="0 0 24 24" fill="none" xmlns="http://www.w3.org/2000/svg">
<mask id="mask0_252_11417" style="mask-type:alpha" maskUnits="userSpaceOnUse" x="0" y="0" width="24" height="24">
<rect width="24" height="24" transform="matrix(-1 0 0 1 24 0)" fill="#D9D9D9"/>
</mask>
<g mask="url(#mask0_252_11417)">
<path d="M6.927 12.5H18.5C18.6423 12.5 18.7613 12.4522 18.8568 12.3567C18.9523 12.2612 19 12.1423 19 12C19 11.8576 18.9523 11.7387 18.8568 11.6432C18.7613 11.5477 18.6423 11.5 18.5 11.5H6.927L10.6615 7.76546C10.759 7.66796 10.81 7.55321 10.8145 7.42121C10.819 7.28904 10.768 7.16787 10.6615 7.05771C10.5513 6.94737 10.4324 6.89129 10.3047 6.88946C10.1772 6.88746 10.0583 6.94162 9.948 7.05196L5.5655 11.4345C5.47817 11.5218 5.41692 11.611 5.38175 11.702C5.34642 11.793 5.32875 11.8923 5.32875 12C5.32875 12.1076 5.34642 12.207 5.38175 12.298C5.41692 12.389 5.47817 12.4781 5.5655 12.5655L9.948 16.948C10.0455 17.0455 10.1613 17.0965 10.2952 17.101C10.4292 17.1055 10.5513 17.0525 10.6615 16.9422C10.768 16.832 10.8222 16.7141 10.824 16.5885C10.826 16.4628 10.7718 16.3448 10.6615 16.2345L6.927 12.5Z" fill="#767676"/>
</g>
</svg>
