<svg width="18" height="18" viewBox="0 0 18 18" fill="none" xmlns="http://www.w3.org/2000/svg">
<mask id="mask0_115_1916" style="mask-type:alpha" maskUnits="userSpaceOnUse" x="0" y="0" width="18" height="18">
<rect x="9" y="0.514648" width="12" height="12" transform="rotate(45 9 0.514648)" fill="#D9D9D9"/>
</mask>
<g mask="url(#mask0_115_1916)">
<path d="M8.82303 9.17665C8.74784 9.10146 8.71031 9.01307 8.71043 8.91149C8.71042 8.8099 8.74799 8.72154 8.82312 8.64641L11.0879 6.38163L8.00924 6.37624C7.91137 6.37618 7.82648 6.34092 7.75459 6.27044C7.68282 6.19997 7.64673 6.11196 7.64632 6.00643C7.64596 5.90967 7.68303 5.82405 7.75751 5.74957C7.83199 5.67509 7.91817 5.63782 8.01605 5.63776L11.9147 5.63776C11.9809 5.63782 12.0392 5.64954 12.0899 5.67294C12.1405 5.69633 12.1869 5.72918 12.2293 5.77149C12.2716 5.8138 12.3043 5.86011 12.3274 5.91044C12.3505 5.96076 12.362 6.01901 12.3621 6.08518L12.362 9.99062C12.3626 10.088 12.3266 10.1729 12.254 10.2455C12.1815 10.3181 12.0944 10.3562 11.9928 10.3598C11.8855 10.3621 11.7956 10.3259 11.7233 10.2514C11.651 10.1768 11.6148 10.087 11.6148 9.98178L11.6149 6.91532L9.35345 9.17674C9.27832 9.25187 9.18993 9.28941 9.08829 9.28935C8.98658 9.28935 8.89816 9.25178 8.82303 9.17665ZM7.05526 10.9444C6.98008 10.8692 6.94254 10.7808 6.94266 10.6793C6.94266 10.5777 6.98022 10.4893 7.05535 10.4142L7.58568 9.88385C7.66081 9.80872 7.74923 9.77115 7.85094 9.77115C7.95258 9.77121 8.04097 9.8088 8.1161 9.88393C8.19129 9.95912 8.22886 10.0475 8.2288 10.149C8.22874 10.2507 8.19114 10.339 8.11601 10.4142L7.58568 10.9445C7.51055 11.0196 7.42216 11.0572 7.32052 11.0571C7.21881 11.0571 7.13039 11.0195 7.05526 10.9444ZM5.64105 12.3586C5.56586 12.2834 5.52833 12.1951 5.52844 12.0935C5.52844 11.9919 5.56601 11.9035 5.64114 11.8284L5.81792 11.6516C5.89305 11.5765 5.98146 11.5389 6.08317 11.5389C6.18482 11.539 6.27321 11.5766 6.34834 11.6517C6.42352 11.7269 6.46109 11.8152 6.46103 11.9168C6.46097 12.0184 6.42338 12.1068 6.34825 12.1819L6.17147 12.3587C6.09634 12.4338 6.00795 12.4714 5.9063 12.4713C5.8046 12.4713 5.71618 12.4338 5.64105 12.3586Z" fill="#0049AC"/>
</g>
</svg>
