<svg width="20" height="20" viewBox="0 0 20 20" fill="none" xmlns="http://www.w3.org/2000/svg">
<mask id="mask0_115_1848" style="mask-type:alpha" maskUnits="userSpaceOnUse" x="0" y="0" width="20" height="20">
<rect width="20" height="20" transform="matrix(-1 0 0 1 20 0)" fill="#D9D9D9"/>
</mask>
<g mask="url(#mask0_115_1848)">
<path d="M13.4536 6.50313V13.3333C13.4536 13.5104 13.5135 13.6588 13.6334 13.7785C13.7533 13.8984 13.9017 13.9583 14.0788 13.9583C14.256 13.9583 14.4044 13.8984 14.524 13.7785C14.6438 13.6588 14.7036 13.5104 14.7036 13.3333V5.12813C14.7036 4.91479 14.6314 4.7359 14.4869 4.59146C14.3426 4.44715 14.1638 4.375 13.9503 4.375H5.74528C5.5682 4.375 5.41972 4.43493 5.29986 4.55479C5.18014 4.67465 5.12028 4.82313 5.12028 5.00021C5.12028 5.17743 5.18014 5.32583 5.29986 5.44542C5.41972 5.56514 5.5682 5.625 5.74528 5.625H12.5755L4.80611 13.4023C4.69083 13.5177 4.63452 13.6627 4.63716 13.8373C4.63979 14.012 4.69882 14.1571 4.81424 14.2725C4.92952 14.3878 5.0732 14.4454 5.24528 14.4454C5.41722 14.4454 5.5609 14.3878 5.67632 14.2725L13.4536 6.50313Z" fill="#0049AC"/>
</g>
</svg>
