<svg width="39" height="38" viewBox="0 0 39 38" fill="none" xmlns="http://www.w3.org/2000/svg">
<rect y="0.428711" width="39" height="37.1429" rx="18.5714" fill="white"/>
<path d="M12.4591 16.7175H26.5425V14.2026C26.5425 14.1251 26.5102 14.0542 26.4456 13.9898C26.3813 13.9253 26.3103 13.893 26.2329 13.893H12.7687C12.6912 13.893 12.6203 13.9253 12.5559 13.9898C12.4914 14.0542 12.4591 14.1251 12.4591 14.2026V16.7175ZM12.7687 29.4853C12.2605 29.4853 11.8304 29.3092 11.4783 28.9571C11.1262 28.605 10.9502 28.1749 10.9502 27.6667V14.2026C10.9502 13.6944 11.1262 13.2643 11.4783 12.9122C11.8304 12.5601 12.2605 12.3841 12.7687 12.3841H14.1614V11.0298C14.1614 10.8093 14.2353 10.6252 14.383 10.4775C14.5307 10.33 14.7148 10.2562 14.9353 10.2562C15.1559 10.2562 15.34 10.33 15.4875 10.4775C15.6353 10.6252 15.7091 10.8093 15.7091 11.0298V12.3841H23.3312V11.0107C23.3312 10.7966 23.4034 10.6173 23.5477 10.4728C23.6923 10.3284 23.8716 10.2562 24.0857 10.2562C24.2998 10.2562 24.479 10.3284 24.6234 10.4728C24.7679 10.6173 24.8401 10.7966 24.8401 11.0107V12.3841H26.2329C26.7411 12.3841 27.1712 12.5601 27.5233 12.9122C27.8753 13.2643 28.0514 13.6944 28.0514 14.2026V18.9441C28.0514 19.1582 27.9791 19.3375 27.8346 19.4818C27.6903 19.6263 27.511 19.6986 27.2969 19.6986C27.0828 19.6986 26.9036 19.6263 26.7592 19.4818C26.6147 19.3375 26.5425 19.1582 26.5425 18.9441V18.2264H12.4591V27.6667C12.4591 27.7442 12.4914 27.8151 12.5559 27.8795C12.6203 27.9441 12.6912 27.9763 12.7687 27.9763H18.9224C19.1365 27.9763 19.3158 28.0486 19.4603 28.1931C19.6047 28.3375 19.6768 28.5167 19.6768 28.7308C19.6768 28.9449 19.6047 29.1241 19.4603 29.2685C19.3158 29.413 19.1365 29.4853 18.9224 29.4853H12.7687ZM25.7299 30.4912C24.4738 30.4912 23.4053 30.0508 22.5244 29.1699C21.6436 28.289 21.2031 27.2205 21.2031 25.9644C21.2031 24.7083 21.6436 23.6398 22.5244 22.759C23.4053 21.8781 24.4738 21.4376 25.7299 21.4376C26.9862 21.4376 28.0547 21.8781 28.9354 22.759C29.8162 23.6398 30.2567 24.7083 30.2567 25.9644C30.2567 27.2205 29.8162 28.289 28.9354 29.1699C28.0547 30.0508 26.9862 30.4912 25.7299 30.4912ZM26.175 25.7826V23.4495C26.175 23.3283 26.1311 23.2239 26.0433 23.1362C25.9556 23.0485 25.8511 23.0047 25.7299 23.0047C25.6087 23.0047 25.5042 23.0485 25.4165 23.1362C25.3289 23.2239 25.285 23.3283 25.285 23.4495V25.767C25.285 25.8882 25.307 26.0037 25.3509 26.1133C25.3947 26.223 25.4637 26.3249 25.5579 26.4191L27.092 27.9532C27.1796 28.0409 27.2825 28.0863 27.4005 28.0895C27.5184 28.0927 27.6244 28.0472 27.7187 27.9532C27.8129 27.859 27.86 27.7545 27.86 27.6398C27.86 27.525 27.8129 27.4205 27.7187 27.3262L26.175 25.7826Z" fill="#045719"/>
</svg>
