<svg width="20" height="21" viewBox="0 0 20 21" fill="none" xmlns="http://www.w3.org/2000/svg">
<path d="M8.6 12.6628L6.45 10.5128C6.26667 10.3295 6.03333 10.2378 5.75 10.2378C5.46667 10.2378 5.23333 10.3295 5.05 10.5128C4.86667 10.6961 4.775 10.9295 4.775 11.2128C4.775 11.4961 4.86667 11.7295 5.05 11.9128L7.9 14.7628C8.1 14.9628 8.33333 15.0628 8.6 15.0628C8.86667 15.0628 9.1 14.9628 9.3 14.7628L14.95 9.11279C15.1333 8.92946 15.225 8.69613 15.225 8.41279C15.225 8.12946 15.1333 7.89613 14.95 7.71279C14.7667 7.52946 14.5333 7.43779 14.25 7.43779C13.9667 7.43779 13.7333 7.52946 13.55 7.71279L8.6 12.6628ZM10 20.8628C8.61667 20.8628 7.31667 20.6003 6.1 20.0753C4.88333 19.5503 3.825 18.8378 2.925 17.9378C2.025 17.0378 1.3125 15.9795 0.7875 14.7628C0.2625 13.5461 0 12.2461 0 10.8628C0 9.47946 0.2625 8.17946 0.7875 6.96279C1.3125 5.74613 2.025 4.68779 2.925 3.78779C3.825 2.88779 4.88333 2.17529 6.1 1.65029C7.31667 1.12529 8.61667 0.862793 10 0.862793C11.3833 0.862793 12.6833 1.12529 13.9 1.65029C15.1167 2.17529 16.175 2.88779 17.075 3.78779C17.975 4.68779 18.6875 5.74613 19.2125 6.96279C19.7375 8.17946 20 9.47946 20 10.8628C20 12.2461 19.7375 13.5461 19.2125 14.7628C18.6875 15.9795 17.975 17.0378 17.075 17.9378C16.175 18.8378 15.1167 19.5503 13.9 20.0753C12.6833 20.6003 11.3833 20.8628 10 20.8628Z" fill="#045719"/>
</svg>
