<svg width="20" height="20" viewBox="0 0 20 20" fill="none" xmlns="http://www.w3.org/2000/svg">
<mask id="mask0_252_9579" style="mask-type:alpha" maskUnits="userSpaceOnUse" x="0" y="0" width="20" height="20">
<rect width="20" height="20" fill="#D9D9D9"/>
</mask>
<g mask="url(#mask0_252_9579)">
<path d="M8.83325 12.9231L14.1635 7.5929L13.5737 7.00311L8.83325 11.7435L6.45825 9.36852L5.86846 9.95831L8.83325 12.9231ZM4.6795 16.6666C4.29589 16.6666 3.97561 16.5382 3.71867 16.2812C3.46172 16.0243 3.33325 15.704 3.33325 15.3204V4.67956C3.33325 4.29595 3.46172 3.97567 3.71867 3.71873C3.97561 3.46179 4.29589 3.33331 4.6795 3.33331H15.3203C15.7039 3.33331 16.0242 3.46179 16.2812 3.71873C16.5381 3.97567 16.6666 4.29595 16.6666 4.67956V15.3204C16.6666 15.704 16.5381 16.0243 16.2812 16.2812C16.0242 16.5382 15.7039 16.6666 15.3203 16.6666H4.6795ZM4.6795 15.8333H15.3203C15.4487 15.8333 15.5662 15.7799 15.673 15.6731C15.7798 15.5663 15.8333 15.4487 15.8333 15.3204V4.67956C15.8333 4.55123 15.7798 4.43366 15.673 4.32685C15.5662 4.22005 15.4487 4.16665 15.3203 4.16665H4.6795C4.55117 4.16665 4.4336 4.22005 4.32679 4.32685C4.21999 4.43366 4.16659 4.55123 4.16659 4.67956V15.3204C4.16659 15.4487 4.21999 15.5663 4.32679 15.6731C4.4336 15.7799 4.55117 15.8333 4.6795 15.8333Z" fill="#1C1B1F"/>
</g>
</svg>
