<svg width="13" height="9" viewBox="0 0 13 9" fill="none" xmlns="http://www.w3.org/2000/svg">
<path d="M4.18983 7.45414L11.3886 0.255387C11.5125 0.131359 11.6575 0.0680257 11.8236 0.0653868C11.9897 0.0627479 12.1374 0.126081 12.2667 0.255387C12.396 0.384692 12.4607 0.533165 12.4607 0.700803C12.4607 0.868581 12.396 1.01712 12.2667 1.14643L4.71712 8.70893C4.56642 8.85948 4.39066 8.93476 4.18983 8.93476C3.98899 8.93476 3.81323 8.85948 3.66253 8.70893L0.183367 5.22976C0.0594777 5.10573 -0.00163348 4.95851 3.31858e-05 4.78809C0.00156096 4.61782 0.0669776 4.46803 0.196283 4.33872C0.325589 4.20941 0.474061 4.14476 0.6417 4.14476C0.809478 4.14476 0.958019 4.20941 1.08732 4.33872L4.18983 7.45414Z" fill="#045719"/>
</svg>
