<svg width="23" height="23" viewBox="0 0 23 23" fill="none" xmlns="http://www.w3.org/2000/svg">
<mask id="mask0_249_4465" style="mask-type:alpha" maskUnits="userSpaceOnUse" x="0" y="0" width="23" height="23">
<rect x="0.390625" y="0.25" width="22.5" height="22.5" fill="#D9D9D9"/>
</mask>
<g mask="url(#mask0_249_4465)">
<path d="M10.7031 9.39062C11.1586 9.39062 11.5459 9.23109 11.8652 8.91203C12.1842 8.59281 12.3438 8.20547 12.3438 7.75C12.3438 7.29453 12.1842 6.90719 11.8652 6.58797C11.5459 6.26891 11.1586 6.10938 10.7031 6.10938C10.2477 6.10938 9.86031 6.26891 9.54109 6.58797C9.22203 6.90719 9.0625 7.29453 9.0625 7.75C9.0625 8.20547 9.22203 8.59281 9.54109 8.91203C9.86031 9.23109 10.2477 9.39062 10.7031 9.39062ZM10.712 13.1406C11.325 13.1406 11.907 13.0177 12.4581 12.772C13.0092 12.5262 13.4963 12.1749 13.9195 11.7182C13.4026 11.4129 12.8749 11.183 12.3365 11.0287C11.798 10.8741 11.2566 10.7969 10.712 10.7969C10.1136 10.7969 9.53758 10.8756 8.98398 11.0331C8.43055 11.1905 7.93453 11.4188 7.49594 11.7182C7.91297 12.1749 8.39852 12.5262 8.95258 12.772C9.50664 13.0177 10.0931 13.1406 10.712 13.1406ZM10.7031 16.8906C8.67547 16.8906 6.95766 16.1866 5.54969 14.7784C4.14156 13.3705 3.4375 11.6527 3.4375 9.625C3.4375 7.59734 4.14156 5.87953 5.54969 4.47156C6.95766 3.06344 8.67547 2.35938 10.7031 2.35938C12.7308 2.35938 14.4486 3.06344 15.8566 4.47156C17.2647 5.87953 17.9687 7.59734 17.9687 9.625C17.9687 10.5241 17.8236 11.3513 17.5333 12.1066C17.2431 12.862 16.833 13.5721 16.3028 14.2368L20.4677 18.4014C20.6034 18.5373 20.6698 18.702 20.6669 18.8955C20.6637 19.0889 20.5973 19.2536 20.4677 19.3895C20.3317 19.5253 20.1655 19.5932 19.9691 19.5932C19.7726 19.5932 19.6064 19.5253 19.4706 19.3895L15.3058 15.2247C14.6412 15.7548 13.9327 16.165 13.1802 16.4552C12.4279 16.7455 11.6022 16.8906 10.7031 16.8906ZM10.7031 15.4844C12.3258 15.4844 13.708 14.9134 14.8497 13.7716C15.9916 12.6298 16.5625 11.2477 16.5625 9.625C16.5625 8.00234 15.9916 6.62016 14.8497 5.47844C13.708 4.33656 12.3258 3.76562 10.7031 3.76562C9.08047 3.76562 7.69828 4.33656 6.55656 5.47844C5.41469 6.62016 4.84375 8.00234 4.84375 9.625C4.84375 11.2477 5.41469 12.6298 6.55656 13.7716C7.69828 14.9134 9.08047 15.4844 10.7031 15.4844Z" fill="white"/>
</g>
</svg>
