<svg width="24" height="24" viewBox="0 0 24 24" fill="none" xmlns="http://www.w3.org/2000/svg">
<mask id="mask0_150_1655" style="mask-type:alpha" maskUnits="userSpaceOnUse" x="0" y="0" width="24" height="24">
<rect width="24" height="24" fill="#D9D9D9"/>
</mask>
<g mask="url(#mask0_150_1655)">
<path d="M1.92292 12.8772C1.77425 12.7284 1.70092 12.5543 1.70292 12.355C1.70475 12.1556 1.78325 11.9784 1.93842 11.8232C2.09359 11.6784 2.26925 11.6034 2.46542 11.5982C2.66142 11.5932 2.837 11.6682 2.99217 11.8232L6.71542 15.5465L6.96542 15.2965C7.06275 15.3426 7.165 15.4 7.27217 15.4685C7.37917 15.5371 7.48459 15.6234 7.58842 15.7272C7.74359 15.8822 7.81859 16.0578 7.81342 16.254C7.80825 16.4501 7.72809 16.6258 7.57292 16.781L7.33267 17.0215C7.15184 17.192 6.94092 17.2797 6.69992 17.2847C6.45892 17.2899 6.248 17.2021 6.06717 17.0215L1.92292 12.8772ZM12.3499 15.531L21.0229 6.85798C21.1718 6.70931 21.3458 6.6359 21.5452 6.63773C21.7445 6.63973 21.9218 6.71823 22.0769 6.87323C22.2218 7.0284 22.2968 7.20406 22.3019 7.40023C22.3069 7.5964 22.2319 7.77206 22.0769 7.92723L12.9827 17.0215C12.8018 17.2021 12.5909 17.2925 12.3499 17.2925C12.1089 17.2925 11.898 17.2021 11.7172 17.0215L7.57292 12.8772C7.43459 12.7387 7.36375 12.5672 7.36042 12.3627C7.35725 12.1582 7.42809 11.9784 7.57292 11.8232C7.72809 11.6682 7.90634 11.5907 8.10767 11.5907C8.30884 11.5907 8.487 11.6682 8.64217 11.8232L12.3499 15.531ZM16.4114 7.94248L12.5307 11.8232C12.3922 11.9617 12.2207 12.0326 12.0162 12.0357C11.8117 12.0391 11.6319 11.9682 11.4769 11.8232C11.3218 11.6682 11.2442 11.4901 11.2442 11.2887C11.2442 11.0874 11.3218 10.9092 11.4769 10.7542L15.3577 6.87323C15.4962 6.7349 15.6676 6.66406 15.8719 6.66073C16.0764 6.65756 16.2563 6.7284 16.4114 6.87323C16.5666 7.0284 16.6442 7.20665 16.6442 7.40798C16.6442 7.60915 16.5666 7.78731 16.4114 7.94248Z" fill="#045719"/>
</g>
</svg>
