<svg width="39" height="25" viewBox="0 0 39 25" fill="none" xmlns="http://www.w3.org/2000/svg">
<g clip-path="url(#clip0_252_9048)">
<path d="M38.9974 24.6326C38.7932 24.8635 38.5853 25.0916 38.2276 24.9485C37.8698 24.8053 37.8527 24.5104 37.8527 24.1916C37.8527 22.288 37.8527 20.3833 37.8527 18.4778C37.8527 18.3193 37.8374 18.16 37.826 17.9347C37.1086 18.578 36.4666 19.1162 36.5353 20.1785C36.6221 21.5308 36.5677 22.8946 36.5449 24.2527C36.5402 24.4863 36.4471 24.7094 36.2844 24.8769C35.9305 25.1794 35.4354 24.8912 35.4192 24.3882C35.4011 23.8299 35.4135 23.2716 35.4135 22.7124C35.4135 21.7732 35.4278 20.8332 35.4135 19.8941C35.3973 19.0828 35.6682 18.4033 36.2587 17.8526C36.5258 17.6026 36.8072 17.3678 37.1248 17.0891L33.643 15.3388C33.2328 15.7587 32.7979 16.1844 32.3905 16.6339C32.3056 16.7293 32.2951 16.9126 32.2951 17.0557C32.2894 19.4045 32.2951 21.7532 32.2894 24.1029C32.2944 24.2672 32.278 24.4314 32.2408 24.5915C32.2138 24.718 32.1394 24.8293 32.033 24.9026C31.9266 24.9759 31.7961 25.0056 31.6684 24.9857C31.5394 24.9809 31.4166 24.9289 31.3234 24.8396C31.2302 24.7502 31.173 24.6296 31.1628 24.5009C31.1501 24.374 31.1459 24.2465 31.1504 24.1191C31.1504 21.7828 31.1447 19.4426 31.1562 17.1111C31.163 16.9868 31.1415 16.8626 31.0932 16.7478C31.0449 16.6331 30.9712 16.5308 30.8776 16.4488C30.4961 16.0928 30.1469 15.7101 29.7797 15.3331C29.6394 15.4008 29.5307 15.46 29.4172 15.5077C29.3016 15.566 29.1683 15.578 29.0442 15.5413C28.9201 15.5046 28.8147 15.4219 28.7494 15.3102C28.5796 15.0582 28.5768 14.75 28.8334 14.5953C29.38 14.2642 29.339 13.7631 29.3103 13.2592C29.2997 13.1493 29.2519 13.0463 29.1749 12.9672C28.3974 12.1817 28.0559 11.234 28.095 10.1384C28.1036 9.92461 28.1332 9.71846 27.8165 9.6612C27.7416 9.63123 27.6753 9.58323 27.6233 9.52147C27.5714 9.4597 27.5355 9.38609 27.5189 9.30713C27.4674 8.3203 27.3758 7.32106 27.8432 6.3934C28.5319 5.02864 29.6709 4.35675 31.1762 4.32335C31.8315 4.30808 32.5117 4.29376 33.1413 4.4436C34.8803 4.85685 35.9162 6.23688 35.9496 8.04162C35.9496 8.34607 35.9496 8.65146 35.9496 8.95591C35.9496 9.46269 35.8542 9.59248 35.3696 9.76332C35.342 10.1451 35.3324 10.5411 35.2838 10.9286C35.1845 11.6771 34.8427 12.3724 34.3108 12.908C33.9063 13.3346 34.058 14.2737 34.5846 14.5419C35.4431 14.979 36.294 15.4333 37.1716 15.8275C38.094 16.2417 38.7665 16.8448 39.0002 17.8603L38.9974 24.6326ZM34.1772 9.67742C34.0513 9.65356 33.9521 9.64116 33.8558 9.61635C32.9753 9.39016 32.0719 9.22409 31.2239 8.9101C30.7469 8.73259 30.4608 8.81466 30.0076 9.00554C29.2083 9.34053 29.193 9.88357 29.2445 10.5688C29.3723 12.3115 31.2964 13.4033 32.8351 12.5797C33.9893 11.9622 34.286 10.9305 34.1791 9.67742H34.1772ZM34.7629 8.55221C34.9804 7.09201 34.2364 5.80455 32.9114 5.55641C32.1251 5.41661 31.3206 5.4137 30.5333 5.54782C29.2302 5.76924 28.3908 7.15691 28.7017 8.51404C29.1339 8.21627 29.5498 7.95954 29.9304 7.65987C30.3654 7.3182 30.4741 7.29147 30.952 7.53961C31.2208 7.68132 31.4969 7.80875 31.7791 7.92137C32.7318 8.29813 33.7412 8.5114 34.7648 8.55221H34.7629ZM30.4293 13.766C30.4493 14.0284 30.3864 14.3024 30.4951 14.4341C30.8538 14.8731 31.2754 15.2615 31.7085 15.7062C32.0786 15.3245 32.3934 14.958 32.7578 14.644C33.0507 14.3902 33.044 14.1277 32.9305 13.7899C32.1292 14.0466 31.3422 14.0609 30.4312 13.766H30.4293Z" fill="black"/>
<path d="M26.7718 16.7093C26.2233 17.2943 25.6481 17.8545 25.1397 18.4777C24.9861 18.6686 24.9727 19.0046 24.9699 19.2746C24.9556 20.8876 24.9632 22.5005 24.9622 24.1134C24.9622 24.7003 24.781 24.9828 24.4023 24.9952C24.0236 25.0076 23.8204 24.7175 23.8204 24.1067C23.8204 22.5062 23.8328 20.9057 23.8147 19.3061C23.8 18.9123 23.8708 18.52 24.0223 18.1562C24.1739 17.7924 24.4024 17.4658 24.6923 17.1989C25.2408 16.674 25.7702 16.129 26.3597 15.5411C26.1136 15.3827 25.92 15.2223 25.6987 15.1221C24.719 14.6736 23.7288 14.2489 22.7491 13.8003C22.5584 13.7116 22.4363 13.7364 22.2884 13.8872C21.6311 14.5552 20.9529 15.2099 20.3062 15.8914C20.169 16.0469 20.0901 16.2453 20.0829 16.4525C20.0686 18.9922 20.0734 21.5318 20.0715 24.0723C20.0715 24.2365 20.1077 24.4398 20.0267 24.5562C19.9036 24.7337 19.7119 24.9332 19.5173 24.9752C19.2568 25.0315 19.0279 24.8559 18.9669 24.5648C18.9383 24.4026 18.9265 24.2379 18.9316 24.0733C18.9316 21.5461 18.9249 19.0151 18.9316 16.4917C18.9378 16.3664 18.9158 16.2414 18.8672 16.1257C18.8187 16.0101 18.7448 15.9069 18.6511 15.8236C17.9939 15.1889 17.35 14.54 16.7118 13.8853C16.5649 13.7354 16.4476 13.7077 16.2501 13.7975C15.2704 14.2451 14.2812 14.6707 13.3006 15.1183C13.0859 15.2138 12.8952 15.3674 12.5909 15.649C12.8208 15.802 13.0407 15.9697 13.2491 16.151C13.7308 16.6205 14.2431 17.0729 14.6408 17.6083C14.9051 17.9652 15.1254 18.4491 15.1397 18.8833C15.1979 20.71 15.176 22.5396 15.1731 24.3682C15.1731 24.7499 14.9213 25.0009 14.6008 24.9923C14.2803 24.9837 14.0446 24.728 14.0408 24.3033C14.0313 23.2535 14.0408 22.1951 14.0408 21.1414C14.0408 20.4934 14.057 19.8454 14.0322 19.1983C14.0227 18.9406 13.9988 18.6257 13.8481 18.4424C13.3406 17.8373 12.7731 17.2829 12.2265 16.7093L12.1311 16.7579V24.0933C12.1352 24.2329 12.1298 24.3725 12.1149 24.5113C12.0729 24.8043 11.8678 25.0038 11.6017 24.9704C11.4032 24.9446 11.1972 24.7633 11.0531 24.6001C10.9711 24.5047 10.9911 24.309 10.9911 24.1592C10.9873 21.7834 10.9873 19.4086 10.9911 17.0347C10.9959 15.6031 11.6446 14.5944 12.9619 14.017C13.9607 13.5799 14.9499 13.1208 15.9506 12.6913C16.3321 12.5291 16.4828 12.2771 16.4953 11.8706C16.5096 11.3934 16.4275 11.0345 16.0431 10.67C15.1302 9.80528 14.7219 8.68293 14.6532 7.42506C14.6427 7.23418 14.5035 7.05476 14.4138 6.87629C14.3127 6.67587 14.1276 6.49453 14.1019 6.28362C13.9464 4.84441 14.0122 3.43479 14.865 2.18646C15.6921 0.98394 16.8272 0.2338 18.2858 0.0868258C19.6394 -0.0515594 21.0082 -0.117412 22.2712 0.548746C24.0064 1.46495 24.8869 2.92706 24.9565 4.88068C24.9642 5.06508 24.9337 5.24908 24.8671 5.42117C24.8005 5.59327 24.6991 5.74976 24.5692 5.88087C24.4533 6.01535 24.3805 6.18162 24.3603 6.35806C24.2773 7.11107 24.2849 7.88507 24.1409 8.6209C23.9644 9.52661 23.4369 10.2672 22.7596 10.8933C22.2655 11.3504 22.4363 12.4031 23.0553 12.6827C24.0484 13.1303 25.0424 13.577 26.0411 14.0189C27.3766 14.603 28.0138 15.6318 28.0157 17.0729C28.0157 19.4353 28.0157 21.7974 28.0157 24.1592C28.0172 24.2982 28.0021 24.4369 27.9709 24.5724C27.9471 24.6997 27.8758 24.8133 27.7715 24.89C27.6672 24.9667 27.5376 25.0009 27.409 24.9857C27.2729 24.9862 27.142 24.9335 27.0441 24.8389C26.9463 24.7442 26.8893 24.615 26.8853 24.4789C26.872 24.3405 26.8748 24.2002 26.8748 24.0609C26.8748 21.7621 26.8748 19.4633 26.8748 17.1645V16.7608L26.7718 16.7093ZM15.2199 6.11565C15.549 5.89805 15.8094 5.72435 16.0708 5.55256C16.3751 5.35214 16.6937 5.38173 16.8873 5.62701C17.081 5.87228 17.0428 6.21395 16.7719 6.43823C16.5632 6.6224 16.3329 6.7804 16.086 6.90874C15.8313 7.02899 15.7493 7.19505 15.7998 7.44796C15.8809 7.84307 15.9277 8.2506 16.0555 8.6314C16.6374 10.3665 18.7102 11.4125 20.4607 10.8933C22.4544 10.3016 23.4646 8.49778 23.1612 6.31225L22.834 6.32943C21.4785 6.41437 20.1316 6.36379 18.8905 5.7568C18.3182 5.47049 17.8002 5.07537 17.2908 4.68408C17.2338 4.63717 17.1871 4.57889 17.1537 4.51295C17.1204 4.44701 17.1012 4.37485 17.0972 4.30107C17.0933 4.22728 17.1047 4.15348 17.1308 4.08436C17.1569 4.01524 17.1971 3.95231 17.2488 3.89957C17.4511 3.67434 17.7621 3.6543 18.0387 3.8509C18.0997 3.8948 18.1541 3.94634 18.2133 3.99788C19.8855 5.376 21.8038 5.37028 23.8175 5.03433C23.7813 3.58081 23.2127 2.47182 22.0051 1.72072C20.8871 1.02498 19.6451 1.12901 18.4184 1.2254C17.7824 1.28633 17.1778 1.53105 16.6784 1.92973C15.3124 2.96714 15.0653 4.41208 15.2199 6.11374V6.11565ZM21.3078 11.8276C20.103 12.2876 18.8791 12.2695 17.6705 11.8276C17.5875 12.2466 17.3709 12.6713 17.4797 12.9872C17.597 13.3317 18.012 13.576 18.2982 13.8643C18.4591 14.0265 18.6206 14.1878 18.7827 14.3481C19.0212 14.5848 19.2597 14.8196 19.5192 15.0735C20.1955 14.3901 20.8394 13.744 21.4766 13.0893C21.5093 13.0563 21.5346 13.0169 21.5511 12.9735C21.5675 12.9301 21.5746 12.8837 21.572 12.8374C21.4966 12.5052 21.4013 12.1826 21.3078 11.8276Z" fill="black"/>
<path d="M8.01516 17.1722C7.59543 17.5959 7.15663 18.0197 6.74645 18.4673C6.66059 18.5627 6.64152 18.7431 6.64152 18.8853C6.63484 20.6376 6.63675 22.3898 6.63675 24.143C6.64247 24.2705 6.63704 24.3982 6.62053 24.5247C6.56902 24.8111 6.36488 25.0134 6.09874 24.9762C5.90032 24.9485 5.69714 24.7643 5.555 24.5944C5.47392 24.499 5.49681 24.3081 5.49586 24.1535C5.49586 22.4012 5.50254 20.648 5.48346 18.8958C5.46715 18.6788 5.38115 18.4729 5.2383 18.3089C4.89298 17.9052 4.5076 17.5358 4.14606 17.1636L1.53519 18.4911C1.95587 18.9063 2.32599 19.2852 2.71137 19.6488C3.00446 19.9126 3.23538 20.2382 3.38748 20.6021C3.53957 20.9661 3.60904 21.3592 3.59088 21.7532C3.56894 22.5912 3.59089 23.4291 3.58421 24.268C3.58421 24.7233 3.37911 24.9838 3.03093 24.9943C2.68275 25.0048 2.44618 24.7299 2.44427 24.2594C2.44427 23.4081 2.42997 22.5568 2.44427 21.7065C2.45574 21.478 2.41575 21.2498 2.32725 21.0389C2.23875 20.8279 2.10401 20.6396 1.93298 20.4877C1.68591 20.2577 1.45602 20.0048 1.14218 19.6794V24.1182C1.14218 24.2193 1.14694 24.3215 1.1374 24.4226C1.10497 24.7595 0.881755 24.9876 0.583178 24.9952C0.284602 25.0029 0.0194125 24.7643 0.0108272 24.4093C-0.00634332 23.9645 0.004152 23.5198 0.004152 23.0731C0.004152 21.8916 0.004152 20.7101 0.004152 19.5295C0.004152 18.5093 0.464893 17.7544 1.36825 17.2829C1.9635 16.9718 2.56542 16.6731 3.17116 16.382C3.51934 16.214 3.70058 15.962 3.66338 15.5688C3.66052 15.5435 3.66052 15.5179 3.66338 15.4925C3.75877 14.8378 3.57562 14.3472 3.0338 13.8901C2.36605 13.3327 1.99784 12.5339 1.90913 11.6616C1.77939 10.398 1.684 9.12677 2.26494 7.9252C2.54627 7.3252 2.97244 6.80468 3.50503 6.4106C3.69581 6.27317 3.75973 6.14623 3.71585 5.90764C3.62702 5.44313 3.68006 4.96263 3.86807 4.52872C4.05608 4.09481 4.37035 3.7276 4.76993 3.47492C5.64086 2.94429 6.53086 2.95002 7.3913 3.49497C7.78825 3.75251 8.09813 4.12408 8.28028 4.56093C8.46243 4.99779 8.50834 5.47953 8.41199 5.94296C8.36811 6.1596 8.43011 6.25885 8.58942 6.38006C9.68452 7.21896 10.2683 8.33177 10.2855 9.71371C10.3087 10.3978 10.2816 11.0827 10.2044 11.7628C10.0661 12.7849 9.53093 13.6133 8.7306 14.2575C8.53314 14.4169 8.42439 14.5791 8.46064 14.8301C8.47307 14.9185 8.47307 15.0081 8.46064 15.0964C8.36525 15.796 8.57034 16.2942 9.28959 16.5547C9.67879 16.696 9.77323 17.0519 9.6082 17.3612C9.45462 17.6475 9.157 17.7276 8.78497 17.5578C8.53504 17.448 8.29179 17.3125 8.01516 17.1722ZM9.11789 11.2064C8.69149 11.234 8.28703 11.2923 7.88543 11.2789C6.82467 11.2436 5.89078 10.8542 5.07613 10.1766C4.94354 10.0668 4.84529 9.94276 4.62302 10.0811C4.10982 10.3942 3.57371 10.6633 3.00136 10.9697C2.86304 12.5158 4.21761 13.9645 5.98045 14.0743C7.57254 14.1688 9.09881 12.782 9.11789 11.2054V11.2064ZM9.13697 9.97903C9.21519 8.12371 7.75188 6.60243 6.0167 6.67974C4.34639 6.75418 2.87735 8.20674 3.05001 9.73375C3.46115 9.45985 3.85894 9.23939 4.20425 8.95498C4.79568 8.47111 4.95308 8.47779 5.50445 9.02369C6.52323 10.0306 7.72421 10.377 9.13983 9.97807L9.13697 9.97903ZM7.29591 15.0821C6.86569 15.1317 6.46409 15.2157 6.06344 15.2138C5.6628 15.2119 5.24212 15.127 4.82335 15.0773C4.80713 15.3932 4.7871 15.7082 4.77851 16.0241C4.76934 16.1087 4.78955 16.194 4.83575 16.2655C5.23258 16.6855 5.64086 17.0949 6.08157 17.5435L7.17857 16.4039C7.2185 16.3728 7.25383 16.3362 7.2835 16.2951C7.33164 16.2256 7.36209 16.1453 7.37222 16.0613C7.35695 15.733 7.32738 15.4066 7.29591 15.0812V15.0821ZM7.29591 5.61083C7.33334 5.36993 7.29462 5.12334 7.18516 4.90553C7.07571 4.68771 6.90098 4.50954 6.68539 4.3959C6.46278 4.27053 6.20703 4.21666 5.95279 4.24158C5.69855 4.2665 5.45811 4.36903 5.26406 4.53525C4.90348 4.8416 4.75466 5.28538 4.86723 5.61083H7.29591Z" fill="black"/>
</g>
<defs>
<clipPath id="clip0_252_9048">
<rect width="39" height="25" fill="white"/>
</clipPath>
</defs>
</svg>
